<svg width="25" height="24" viewBox="0 0 25 24" fill="none" xmlns="http://www.w3.org/2000/svg">
<path d="M9.25991 10.87C9.15991 10.86 9.03991 10.86 8.92991 10.87C6.54991 10.79 4.65991 8.84 4.65991 6.44C4.65991 3.99 6.63991 2 9.09991 2C11.5499 2 13.5399 3.99 13.5399 6.44C13.5299 8.84 11.6399 10.79 9.25991 10.87Z" stroke="#555555" stroke-width="1.5" stroke-linecap="round" stroke-linejoin="round"/>
<path d="M16.5099 4C18.4499 4 20.0099 5.57 20.0099 7.5C20.0099 9.39 18.5099 10.93 16.6399 11C16.5599 10.99 16.4699 10.99 16.3799 11" stroke="#555555" stroke-width="1.5" stroke-linecap="round" stroke-linejoin="round"/>
<path d="M4.25982 14.56C1.83982 16.18 1.83982 18.82 4.25982 20.43C7.00982 22.27 11.5198 22.27 14.2698 20.43C16.6898 18.81 16.6898 16.17 14.2698 14.56C11.5298 12.73 7.01982 12.73 4.25982 14.56Z" stroke="#555555" stroke-width="1.5" stroke-linecap="round" stroke-linejoin="round"/>
<path d="M18.4399 20C19.1599 19.85 19.8399 19.56 20.3999 19.13C21.9599 17.96 21.9599 16.03 20.3999 14.86C19.8499 14.44 19.1799 14.16 18.4699 14" stroke="#555555" stroke-width="1.5" stroke-linecap="round" stroke-linejoin="round"/>
</svg>
